<svg width="19" height="19" viewBox="0 0 19 19" fill="none" xmlns="http://www.w3.org/2000/svg">
<g clip-path="url(#clip0_549_512)">
<path d="M13.0585 -6.24079e-06C14.4916 0.000911319 15.876 0.520136 16.9563 1.46185C18.0366 2.40357 18.7398 3.70423 18.9362 5.12383C19.1325 6.54342 18.8089 7.98615 18.0248 9.18578C17.2408 10.3854 16.0494 11.261 14.6703 11.651C13.668 11.938 12.607 11.9511 11.5979 11.689L5.33735 17.9479C5.00501 18.2825 4.60951 18.5478 4.17382 18.7285C3.73813 18.9091 3.27091 19.0014 2.79927 19C2.05703 18.9994 1.34538 18.7042 0.82054 18.1794C0.295698 17.6546 0.000566662 16.9429 -6.26978e-05 16.2007C-0.00128908 15.729 0.0909923 15.2618 0.271449 14.826C0.451903 14.3902 0.716952 13.9945 1.05127 13.6618L1.58327 13.1298C1.88095 12.8341 2.28315 12.6677 2.70269 12.6667L3.95827 12.6667L3.95827 11.875C3.95827 11.4551 4.12509 11.0523 4.42202 10.7554C4.71895 10.4585 5.12168 10.2917 5.5416 10.2917L6.33327 10.2917L6.33327 9.03608C6.33271 8.82808 6.37342 8.62203 6.45306 8.42988C6.53269 8.23773 6.64966 8.06329 6.79719 7.91666L7.31177 7.40208C7.04818 6.39342 7.06103 5.33239 7.34898 4.33041C7.673 3.18882 8.3304 2.16994 9.23699 1.40424C10.1436 0.638547 11.2581 0.160892 12.4378 0.032453C12.644 0.011022 12.8512 0.000188291 13.0585 -6.24079e-06ZM13.0585 10.2917C13.869 10.2924 14.6637 10.067 15.3531 9.64061C16.0424 9.21424 16.5991 8.60393 16.9604 7.87836C17.3217 7.15279 17.4733 6.34077 17.3981 5.53372C17.3229 4.72666 17.024 3.9566 16.5349 3.31024C16.0458 2.66387 15.386 2.16685 14.6298 1.87512C13.8736 1.58339 13.0509 1.50854 12.2545 1.659C11.458 1.80945 10.7194 2.17924 10.1217 2.72673C9.52395 3.27421 9.09094 3.97767 8.87135 4.75791C8.62436 5.61565 8.65204 6.5292 8.95052 7.37041C8.99923 7.5109 9.00739 7.66226 8.97407 7.80718C8.94075 7.95209 8.86729 8.08469 8.7621 8.18979L7.9166 9.03608L7.9166 10.2917C7.9166 10.7116 7.74979 11.1143 7.45286 11.4112C7.15592 11.7082 6.7532 11.875 6.33327 11.875L5.5416 11.875L5.5416 12.6667C5.5416 13.0866 5.37479 13.4893 5.07786 13.7862C4.78092 14.0832 4.3782 14.25 3.95827 14.25L2.70269 14.25L2.17069 14.782C1.98389 14.9679 1.83579 15.189 1.73497 15.4325C1.63414 15.676 1.58258 15.9371 1.58327 16.2007C1.58348 16.523 1.71155 16.832 1.93938 17.06C2.16721 17.288 2.47618 17.4162 2.79848 17.4167C3.06221 17.4173 3.32346 17.3657 3.56711 17.2647C3.81075 17.1637 4.03196 17.0155 4.21794 16.8285L10.8133 10.2339C10.9186 10.1287 11.0513 10.0553 11.1964 10.0221C11.3415 9.9889 11.493 9.99727 11.6335 10.0462C12.0926 10.2079 12.5757 10.2909 13.0624 10.2917L13.0585 10.2917ZM15.0416 4.74999C15.0416 4.59342 14.9952 4.44036 14.9082 4.31017C14.8212 4.17998 14.6976 4.07851 14.5529 4.01859C14.4082 3.95867 14.2491 3.94299 14.0955 3.97354C13.9419 4.00409 13.8009 4.07948 13.6901 4.1902C13.5794 4.30092 13.504 4.44198 13.4735 4.59555C13.4429 4.74911 13.4586 4.90829 13.5185 5.05295C13.5785 5.19761 13.6799 5.32125 13.8101 5.40824C13.9403 5.49523 14.0934 5.54166 14.2499 5.54166C14.4599 5.54166 14.6613 5.45825 14.8097 5.30979C14.9582 5.16132 15.0416 4.95996 15.0416 4.74999Z" fill="#B3B3B3"/>
</g>
<defs>
<clipPath id="clip0_549_512">
<rect width="19" height="19" fill="white" transform="translate(19 19) rotate(-180)"/>
</clipPath>
</defs>
</svg>
