<svg width="15" height="19" viewBox="0 0 15 19" fill="none" xmlns="http://www.w3.org/2000/svg">
<path d="M0.375 19H1.95833V15.0076C1.95896 14.387 2.2058 13.7919 2.64468 13.353C3.08356 12.9141 3.67862 12.6673 4.29929 12.6667H10.7007C11.3214 12.6673 11.9164 12.9141 12.3553 13.353C12.7942 13.7919 13.041 14.387 13.0417 15.0076V19H14.625V15.0076C14.6237 13.9672 14.2099 12.9698 13.4742 12.2341C12.7385 11.4984 11.7411 11.0846 10.7007 11.0833H4.29929C3.25889 11.0846 2.26146 11.4984 1.52579 12.2341C0.790111 12.9698 0.376257 13.9672 0.375 15.0076V19Z" fill="#B3B3B3"/>
<path d="M7.5 9.5C8.43946 9.5 9.35782 9.22142 10.139 8.69948C10.9201 8.17755 11.5289 7.4357 11.8884 6.56775C12.2479 5.6998 12.342 4.74473 12.1587 3.82332C11.9754 2.90191 11.5231 2.05554 10.8588 1.39124C10.1945 0.726945 9.34809 0.274552 8.42668 0.091272C7.50527 -0.0920077 6.5502 0.00205811 5.68225 0.361574C4.8143 0.721091 4.07245 1.32991 3.55052 2.11104C3.02858 2.89218 2.75 3.81054 2.75 4.75C2.75126 6.00939 3.2521 7.21685 4.14263 8.10737C5.03315 8.9979 6.24061 9.49874 7.5 9.5ZM7.5 1.58334C8.12631 1.58334 8.73855 1.76906 9.2593 2.11701C9.78006 2.46497 10.1859 2.95954 10.4256 3.53817C10.6653 4.1168 10.728 4.75351 10.6058 5.36779C10.4836 5.98206 10.182 6.54631 9.73917 6.98917C9.2963 7.43204 8.73206 7.73364 8.11778 7.85582C7.50351 7.97801 6.8668 7.9153 6.28817 7.67562C5.70953 7.43594 5.21497 7.03006 4.86701 6.50931C4.51905 5.98855 4.33333 5.37631 4.33333 4.75C4.33333 3.91015 4.66696 3.1047 5.26083 2.51083C5.85469 1.91697 6.66015 1.58334 7.5 1.58334Z" fill="#B3B3B3"/>
</svg>
