<svg width="20" height="20" viewBox="0 0 20 20" fill="none" xmlns="http://www.w3.org/2000/svg">
<g clip-path="url(#clip0_48_351)">
<path d="M10 6.66663C10.61 6.666 11.1991 6.88895 11.6558 7.29329C11.9283 7.53579 12.1867 7.77163 12.3558 7.94079L14.75 10.2941C14.8973 10.451 14.9783 10.6587 14.9759 10.8739C14.9736 11.0891 14.8881 11.295 14.7373 11.4485C14.5865 11.6021 14.3822 11.6914 14.1671 11.6977C13.9521 11.704 13.7428 11.6269 13.5833 11.4825L11.1833 9.12496C11.0267 8.96913 10.7933 8.75746 10.5508 8.54163C10.3986 8.40734 10.2026 8.33325 9.99958 8.33325C9.79658 8.33325 9.60057 8.40734 9.44833 8.54163C9.20666 8.75663 8.97333 8.96829 8.82166 9.11913L6.41666 11.4825C6.25715 11.6269 6.04794 11.704 5.83285 11.6977C5.61776 11.6914 5.41345 11.6021 5.26269 11.4485C5.11194 11.295 5.02643 11.0891 5.02406 10.8739C5.0217 10.6587 5.10266 10.451 5.25 10.2941L7.64833 7.93663C7.815 7.76996 8.07083 7.53663 8.3425 7.29579C8.79918 6.88996 9.38905 6.66605 10 6.66663Z" fill="#6C757E"/>
<path d="M10.0001 19.9999C11.9779 19.9999 13.9113 19.4134 15.5558 18.3146C17.2003 17.2158 18.482 15.654 19.2389 13.8267C19.9958 11.9995 20.1938 9.98879 19.808 8.04898C19.4221 6.10917 18.4697 4.32734 17.0712 2.92881C15.6727 1.53029 13.8908 0.577882 11.951 0.192029C10.0112 -0.193823 8.00054 0.00421023 6.17328 0.761086C4.34602 1.51796 2.78424 2.79969 1.68542 4.44418C0.586609 6.08867 0.000117905 8.02207 0.000117819 9.99988C0.00298445 12.6512 1.05747 15.193 2.93222 17.0678C4.80696 18.9425 7.34883 19.997 10.0001 19.9999ZM10.0001 1.66655C11.6483 1.66655 13.2595 2.15529 14.6299 3.07097C16.0003 3.98665 17.0684 5.28814 17.6991 6.81085C18.3298 8.33357 18.4949 10.0091 18.1733 11.6256C17.8518 13.2421 17.0581 14.727 15.8927 15.8924C14.7272 17.0579 13.2424 17.8516 11.6259 18.1731C10.0094 18.4946 8.33381 18.3296 6.81109 17.6989C5.28837 17.0681 3.98688 16 3.0712 14.6296C2.15553 13.2592 1.66678 11.6481 1.66678 9.99988C1.66921 7.79049 2.54796 5.67228 4.11024 4.11C5.67252 2.54773 7.79072 1.66897 10.0001 1.66655Z" fill="#6C757E"/>
</g>
<defs>
<clipPath id="clip0_48_351">
<rect x="20" width="20" height="20" transform="rotate(90 20 0)" fill="white"/>
</clipPath>
</defs>
</svg>
