<svg width="21" height="18" viewBox="0 0 21 18" fill="none" xmlns="http://www.w3.org/2000/svg">
<path d="M20.1666 18C19.9456 18 19.7337 17.9122 19.5774 17.7559C19.4211 17.5996 19.3333 17.3877 19.3333 17.1666C19.332 15.841 18.8048 14.57 17.8674 13.6326C16.93 12.6952 15.659 12.168 14.3333 12.1666H9.47497V13.4883C9.4749 13.8179 9.37712 14.1401 9.19398 14.4141C9.01084 14.6881 8.75056 14.9017 8.44606 15.0278C8.14156 15.1539 7.80651 15.1869 7.48325 15.1226C7.16 15.0583 6.86306 14.8997 6.62997 14.6666L1.73081 9.76748C1.26213 9.29866 0.99884 8.66289 0.99884 7.99998C0.99884 7.33707 1.26213 6.7013 1.73081 6.23248L6.62997 1.33332C6.86306 1.1003 7.16 0.941622 7.48325 0.877343C7.80651 0.813064 8.14156 0.846068 8.44606 0.972185C8.75056 1.0983 9.01084 1.31187 9.19398 1.58588C9.37712 1.8599 9.4749 2.18206 9.47497 2.51165V3.83331H13.5C15.4884 3.83552 17.3948 4.62641 18.8008 6.03245C20.2069 7.4385 20.9978 9.34487 21 11.3333V17.1666C21 17.3877 20.9122 17.5996 20.7559 17.7559C20.5996 17.9122 20.3877 18 20.1666 18ZM7.80831 2.51165L2.90914 7.41081C2.75291 7.56709 2.66515 7.77901 2.66515 7.99998C2.66515 8.22095 2.75291 8.43287 2.90914 8.58915L7.80831 13.4883V11.3333C7.80831 11.1123 7.8961 10.9003 8.05238 10.7441C8.20866 10.5878 8.42063 10.5 8.64164 10.5H14.3333C15.2796 10.4997 16.2151 10.7013 17.0773 11.0913C17.9396 11.4813 18.7087 12.0508 19.3333 12.7616V11.3333C19.3315 9.78676 18.7164 8.30405 17.6228 7.21047C16.5292 6.11689 15.0465 5.50175 13.5 5.49998H8.64164C8.42063 5.49998 8.20866 5.41218 8.05238 5.2559C7.8961 5.09962 7.80831 4.88766 7.80831 4.66665V2.51165Z" fill="#394858"/>
</svg>
