<svg width="11" height="11" viewBox="0 0 11 11" fill="none" xmlns="http://www.w3.org/2000/svg">
<g clip-path="url(#clip0_221_1199)">
<path d="M8.70833 0.916667H8.25V0.458333C8.25 0.336776 8.20171 0.220197 8.11576 0.134243C8.0298 0.0482886 7.91322 0 7.79167 0C7.67011 0 7.55353 0.0482886 7.46758 0.134243C7.38162 0.220197 7.33333 0.336776 7.33333 0.458333V0.916667H3.66667V0.458333C3.66667 0.336776 3.61838 0.220197 3.53242 0.134243C3.44647 0.0482886 3.32989 0 3.20833 0C3.08678 0 2.9702 0.0482886 2.88424 0.134243C2.79829 0.220197 2.75 0.336776 2.75 0.458333V0.916667H2.29167C1.6841 0.917394 1.10163 1.15907 0.672017 1.58868C0.242404 2.0183 0.000727768 2.60077 0 3.20833L0 8.70833C0.000727768 9.3159 0.242404 9.89837 0.672017 10.328C1.10163 10.7576 1.6841 10.9993 2.29167 11H8.70833C9.3159 10.9993 9.89837 10.7576 10.328 10.328C10.7576 9.89837 10.9993 9.3159 11 8.70833V3.20833C10.9993 2.60077 10.7576 2.0183 10.328 1.58868C9.89837 1.15907 9.3159 0.917394 8.70833 0.916667ZM0.916667 3.20833C0.916667 2.84366 1.06153 2.49392 1.31939 2.23606C1.57726 1.9782 1.92699 1.83333 2.29167 1.83333H8.70833C9.07301 1.83333 9.42274 1.9782 9.68061 2.23606C9.93847 2.49392 10.0833 2.84366 10.0833 3.20833V3.66667H0.916667V3.20833ZM8.70833 10.0833H2.29167C1.92699 10.0833 1.57726 9.93847 1.31939 9.68061C1.06153 9.42274 0.916667 9.07301 0.916667 8.70833V4.58333H10.0833V8.70833C10.0833 9.07301 9.93847 9.42274 9.68061 9.68061C9.42274 9.93847 9.07301 10.0833 8.70833 10.0833Z" fill="#979797"/>
<path d="M5.5 7.5625C5.8797 7.5625 6.1875 7.2547 6.1875 6.875C6.1875 6.4953 5.8797 6.1875 5.5 6.1875C5.1203 6.1875 4.8125 6.4953 4.8125 6.875C4.8125 7.2547 5.1203 7.5625 5.5 7.5625Z" fill="#979797"/>
<path d="M3.20825 7.5625C3.58795 7.5625 3.89575 7.2547 3.89575 6.875C3.89575 6.4953 3.58795 6.1875 3.20825 6.1875C2.82856 6.1875 2.52075 6.4953 2.52075 6.875C2.52075 7.2547 2.82856 7.5625 3.20825 7.5625Z" fill="#979797"/>
<path d="M7.79175 7.5625C8.17144 7.5625 8.47925 7.2547 8.47925 6.875C8.47925 6.4953 8.17144 6.1875 7.79175 6.1875C7.41205 6.1875 7.10425 6.4953 7.10425 6.875C7.10425 7.2547 7.41205 7.5625 7.79175 7.5625Z" fill="#979797"/>
</g>
<defs>
<clipPath id="clip0_221_1199">
<rect width="11" height="11" fill="white"/>
</clipPath>
</defs>
</svg>
