<svg width="24" height="24" viewBox="0 0 24 24" fill="none" xmlns="http://www.w3.org/2000/svg">
<path d="M7.89557 16.1035C7.30957 15.5185 7.30957 14.5675 7.89557 13.9825C8.48157 13.3965 9.43057 13.3965 10.0166 13.9825C11.3426 15.3085 13.6566 15.3095 14.9826 13.9825L19.9716 8.99354C21.3406 7.62454 21.3406 5.39654 19.9716 4.02754C18.6026 2.65854 16.3746 2.65854 15.0056 4.02754C14.4196 4.61354 13.4706 4.61354 12.8846 4.02754C12.2986 3.44254 12.2986 2.49154 12.8846 1.90654C15.4226 -0.632461 19.5546 -0.632461 22.0926 1.90654C24.6316 4.44554 24.6316 8.57554 22.0926 11.1145L17.1036 16.1035C15.8336 17.3735 14.1666 18.0075 12.4996 18.0075C10.8326 18.0075 9.16457 17.3725 7.89557 16.1035ZM6.51157 23.9965C8.17857 23.9965 9.84557 23.3615 11.1156 22.0925C11.7016 21.5075 11.7016 20.5565 11.1156 19.9715C10.5296 19.3855 9.58057 19.3855 8.99457 19.9715C7.62457 21.3415 5.39657 21.3405 4.02857 19.9715C2.65957 18.6025 2.65957 16.3745 4.02857 15.0055L8.98957 10.0445C10.3596 8.67454 12.5876 8.67454 13.9556 10.0445C14.5416 10.6305 15.4906 10.6305 16.0766 10.0445C16.6626 9.45954 16.6626 8.50854 16.0766 7.92354C13.5376 5.38454 9.40757 5.38454 6.86857 7.92354L1.90657 12.8845C-0.632431 15.4235 -0.632431 19.5535 1.90657 22.0925C3.17657 23.3625 4.84357 23.9965 6.51057 23.9965H6.51157Z" fill="#C4C4C4"/>
</svg>
