<svg width="20" height="20" viewBox="0 0 20 20" fill="none" xmlns="http://www.w3.org/2000/svg">
<path d="M9.99991 13.3333C9.3899 13.3339 8.80082 13.1109 8.34408 12.7066C8.07158 12.4641 7.81324 12.2283 7.64408 12.0591L5.24991 9.70575C5.10257 9.54892 5.02161 9.34117 5.02398 9.126C5.02634 8.91082 5.11185 8.70491 5.26261 8.55135C5.41336 8.3978 5.61767 8.30851 5.83276 8.30219C6.04786 8.29586 6.25706 8.37299 6.41658 8.51742L8.81658 10.8749C8.97324 11.0308 9.20658 11.2424 9.44908 11.4583C9.60131 11.5925 9.79733 11.6666 10.0003 11.6666C10.2033 11.6666 10.3993 11.5925 10.5516 11.4583C10.7932 11.2433 11.0266 11.0316 11.1782 10.8808L13.5832 8.51742C13.7428 8.37299 13.952 8.29586 14.1671 8.30219C14.3822 8.30851 14.5865 8.3978 14.7372 8.55135C14.888 8.70491 14.9735 8.91082 14.9758 9.126C14.9782 9.34117 14.8973 9.54892 14.7499 9.70575L12.3516 12.0633C12.1849 12.2299 11.9291 12.4633 11.6574 12.7041C11.2007 13.1099 10.6109 13.3338 9.99991 13.3333V13.3333Z" fill="#6C757E"/>
<path d="M9.99976 -4.14465e-06C8.02195 -4.1737e-06 6.08855 0.586486 4.44406 1.6853C2.79957 2.78411 1.51784 4.3459 0.760965 6.17316C0.00408886 8.00042 -0.193945 10.0111 0.191908 11.9509C0.57776 13.8907 1.53017 15.6725 2.92869 17.0711C4.32722 18.4696 6.10905 19.422 8.04886 19.8078C9.98867 20.1937 11.9993 19.9957 13.8266 19.2388C15.6539 18.4819 17.2156 17.2002 18.3145 15.5557C19.4133 13.9112 19.9998 11.9778 19.9998 10C19.9969 7.34871 18.9424 4.80684 17.0677 2.93209C15.1929 1.05735 12.651 0.00286346 9.99976 -4.14465e-06ZM9.99976 18.3333C8.35158 18.3333 6.74042 17.8446 5.37001 16.9289C3.9996 16.0132 2.93149 14.7117 2.30076 13.189C1.67003 11.6663 1.50501 9.99075 1.82655 8.37424C2.14809 6.75773 2.94177 5.27288 4.1072 4.10744C5.27264 2.942 6.7575 2.14833 8.37401 1.82678C9.99052 1.50524 11.6661 1.67027 13.1888 2.301C14.7115 2.93173 16.013 3.99983 16.9287 5.37024C17.8444 6.74065 18.3331 8.35182 18.3331 10C18.3307 12.2094 17.4519 14.3276 15.8896 15.8899C14.3274 17.4522 12.2092 18.3309 9.99976 18.3333V18.3333Z" fill="#6C757E"/>
</svg>
