<svg width="10" height="10" viewBox="0 0 10 10" fill="none" xmlns="http://www.w3.org/2000/svg">
<path d="M5.88419 5.00023L9.81737 1.06748C10.0615 0.823331 10.0615 0.427487 9.81737 0.183357C9.57322 -0.0607934 9.17737 -0.0607934 8.93324 0.183357L5.00047 4.11652L1.06772 0.183357C0.823575 -0.0607934 0.427732 -0.0607934 0.183601 0.183357C-0.0605297 0.427507 -0.0605493 0.82335 0.183601 1.06748L4.11676 5.00023L0.183601 8.933C-0.0605493 9.17715 -0.0605493 9.57299 0.183601 9.81712C0.427751 10.0613 0.823594 10.0613 1.06772 9.81712L5.00047 5.88394L8.93322 9.81712C9.17737 10.0613 9.57322 10.0613 9.81735 9.81712C10.0615 9.57297 10.0615 9.17713 9.81735 8.933L5.88419 5.00023Z" fill="#A92E35"/>
</svg>
