<svg width="21" height="21" viewBox="0 0 21 21" fill="none" xmlns="http://www.w3.org/2000/svg">
<path d="M17.2132 3.07107C15.8146 1.67255 14.0328 0.720138 12.093 0.334286C10.1532 -0.0515663 8.14252 0.146468 6.31526 0.903344C4.488 1.66022 2.92621 2.94195 1.8274 4.58644C0.728582 6.23093 0.142092 8.16433 0.142092 10.1421C0.142092 12.12 0.728582 14.0534 1.8274 15.6978C2.92621 17.3423 4.488 18.6241 6.31526 19.3809C8.14252 20.1378 10.1532 20.3358 12.093 19.95C14.0328 19.5641 15.8146 18.6117 17.2132 17.2132C19.0859 15.3364 20.1376 12.7934 20.1376 10.1421C20.1376 7.49085 19.0859 4.94784 17.2132 3.07107V3.07107ZM11.9099 13.0884L10.1421 11.3207L8.37433 13.0884C8.21805 13.2447 8.00608 13.3325 7.78507 13.3325C7.56406 13.3325 7.35209 13.2447 7.19581 13.0884C7.03953 12.9321 6.95174 12.7202 6.95174 12.4992C6.95174 12.2781 7.03953 12.0662 7.19581 11.9099L8.96358 10.1421L7.19581 8.37437C7.03953 8.21809 6.95174 8.00613 6.95174 7.78512C6.95174 7.5641 7.03953 7.35214 7.19581 7.19586C7.35209 7.03958 7.56406 6.95178 7.78507 6.95178C8.00608 6.95178 8.21805 7.03958 8.37433 7.19586L10.1421 8.96363L11.9099 7.19586C12.0661 7.03958 12.2781 6.95178 12.4991 6.95178C12.7201 6.95178 12.9321 7.03958 13.0884 7.19586C13.2447 7.35214 13.3324 7.5641 13.3324 7.78512C13.3324 8.00613 13.2447 8.21809 13.0884 8.37437L11.3206 10.1421L13.0884 11.9099C13.2447 12.0662 13.3324 12.2781 13.3324 12.4992C13.3324 12.7202 13.2447 12.9321 13.0884 13.0884C12.9321 13.2447 12.7201 13.3325 12.4991 13.3325C12.2781 13.3325 12.0661 13.2447 11.9099 13.0884Z" fill="#D29B9B"/>
</svg>
