<svg width="15" height="15" viewBox="0 0 15 15" fill="none" xmlns="http://www.w3.org/2000/svg">
<path d="M8.82555 7.50022L14.7253 1.6011C15.0915 1.23487 15.0915 0.641109 14.7253 0.274913C14.3591 -0.0913122 13.7653 -0.0913122 13.3991 0.274913L7.49998 6.17465L1.60085 0.274913C1.23463 -0.0913122 0.640865 -0.0913122 0.274669 0.274913C-0.091527 0.641138 -0.0915563 1.2349 0.274669 1.6011L6.17441 7.50022L0.274669 13.3994C-0.0915563 13.7656 -0.0915563 14.3594 0.274669 14.7256C0.640894 15.0918 1.23466 15.0918 1.60085 14.7256L7.49998 8.82579L13.3991 14.7256C13.7653 15.0918 14.3591 15.0918 14.7253 14.7256C15.0915 14.3593 15.0915 13.7656 14.7253 13.3994L8.82555 7.50022Z" fill="#716D6D"/>
</svg>
