<svg width="34" height="34" viewBox="0 0 34 34" fill="none" xmlns="http://www.w3.org/2000/svg">
<g clip-path="url(#clip0_941_1145)">
<path d="M8.51458 8.51471C6.83635 10.1929 5.69346 12.3311 5.23044 14.6589C4.76742 16.9867 5.00506 19.3995 5.91331 21.5922C6.82156 23.7849 8.35963 25.6591 10.333 26.9776C12.3064 28.2962 14.6265 29 16.9999 29C19.3732 29 21.6933 28.2962 23.6667 26.9776C25.6401 25.6591 27.1782 23.7849 28.0864 21.5922C28.9947 19.3995 29.2323 16.9867 28.7693 14.6589C28.3063 12.3311 27.1634 10.1929 25.4851 8.51472C23.233 6.26746 20.1814 5.00537 16.9999 5.00537C13.8183 5.00537 10.7667 6.26746 8.51458 8.51471V8.51471ZM20.5354 14.8787L18.4141 17L20.5354 19.1213C20.7229 19.3089 20.8283 19.5632 20.8283 19.8284C20.8283 20.0936 20.7229 20.348 20.5354 20.5355C20.3479 20.7231 20.0935 20.8284 19.8283 20.8284C19.5631 20.8284 19.3087 20.7231 19.1212 20.5355L16.9999 18.4142L14.8785 20.5355C14.691 20.7231 14.4367 20.8284 14.1714 20.8284C13.9062 20.8284 13.6519 20.7231 13.4643 20.5355C13.2768 20.348 13.1714 20.0936 13.1714 19.8284C13.1714 19.5632 13.2768 19.3089 13.4643 19.1213L15.5857 17L13.4643 14.8787C13.2768 14.6911 13.1714 14.4368 13.1714 14.1716C13.1714 13.9064 13.2768 13.652 13.4643 13.4645C13.6519 13.2769 13.9062 13.1716 14.1714 13.1716C14.4367 13.1716 14.691 13.2769 14.8785 13.4645L16.9999 15.5858L19.1212 13.4645C19.3087 13.2769 19.5631 13.1716 19.8283 13.1716C20.0935 13.1716 20.3479 13.2769 20.5354 13.4645C20.7229 13.652 20.8283 13.9064 20.8283 14.1716C20.8283 14.4368 20.7229 14.6911 20.5354 14.8787Z" fill="#AC5B5F"/>
</g>
<defs>
<clipPath id="clip0_941_1145">
<rect width="24" height="24" fill="white" transform="translate(0.0292969 17) rotate(-45)"/>
</clipPath>
</defs>
</svg>
