<svg width="23" height="23" viewBox="0 0 23 23" fill="none" xmlns="http://www.w3.org/2000/svg">
<g clip-path="url(#clip0_941_1147)">
<path d="M17.879 0.891253L6.19501 12.5753C5.74876 13.0191 5.39497 13.5471 5.15415 14.1286C4.91332 14.7101 4.79023 15.3336 4.79201 15.963V17.25C4.79201 17.5042 4.89298 17.7479 5.0727 17.9276C5.25242 18.1074 5.49618 18.2083 5.75034 18.2083H7.03739C7.66678 18.2101 8.29028 18.087 8.87179 17.8462C9.45329 17.6054 9.98125 17.2516 10.4251 16.8053L22.1091 5.12134C22.6691 4.55992 22.9837 3.79929 22.9837 3.00629C22.9837 2.2133 22.6691 1.45267 22.1091 0.891253C21.5395 0.346818 20.782 0.042984 19.9941 0.042984C19.2061 0.042984 18.4486 0.346818 17.879 0.891253ZM20.754 3.76625L9.07001 15.4503C8.52963 15.9873 7.79927 16.2897 7.03739 16.2917H6.70868V15.963C6.71067 15.2011 7.01301 14.4707 7.55009 13.9303L19.2341 2.24634C19.4388 2.05079 19.711 1.94168 19.9941 1.94168C20.2771 1.94168 20.5493 2.05079 20.754 2.24634C20.9552 2.44808 21.0682 2.72137 21.0682 3.00629C21.0682 3.29122 20.9552 3.56451 20.754 3.76625Z" fill="#394858"/>
<path d="M22.0417 8.60488C21.7875 8.60488 21.5437 8.70584 21.364 8.88557C21.1843 9.06529 21.0833 9.30904 21.0833 9.56321V14.375H17.25C16.4875 14.375 15.7562 14.6779 15.2171 15.2171C14.6779 15.7562 14.375 16.4875 14.375 17.25V21.0833H4.79167C4.02917 21.0833 3.2979 20.7804 2.75873 20.2413C2.21957 19.7021 1.91667 18.9708 1.91667 18.2083V4.79167C1.91667 4.02917 2.21957 3.2979 2.75873 2.75873C3.2979 2.21957 4.02917 1.91667 4.79167 1.91667H13.4569C13.7111 1.91667 13.9548 1.8157 14.1346 1.63598C14.3143 1.45626 14.4153 1.2125 14.4153 0.958333C14.4153 0.704168 14.3143 0.460412 14.1346 0.280689C13.9548 0.100967 13.7111 0 13.4569 0L4.79167 0C3.52131 0.0015217 2.30341 0.506845 1.40513 1.40513C0.506845 2.30341 0.0015217 3.52131 0 4.79167L0 18.2083C0.0015217 19.4787 0.506845 20.6966 1.40513 21.5949C2.30341 22.4932 3.52131 22.9985 4.79167 23H15.662C16.2916 23.0018 16.9152 22.8787 17.4969 22.6379C18.0786 22.3971 18.6067 22.0433 19.0507 21.597L21.596 19.0498C22.0424 18.6059 22.3963 18.078 22.6373 17.4965C22.8783 16.915 23.0015 16.2915 23 15.662V9.56321C23 9.30904 22.899 9.06529 22.7193 8.88557C22.5396 8.70584 22.2958 8.60488 22.0417 8.60488ZM17.6956 20.2419C17.3104 20.6262 16.8232 20.8922 16.2917 21.0086V17.25C16.2917 16.9958 16.3926 16.7521 16.5724 16.5724C16.7521 16.3926 16.9958 16.2917 17.25 16.2917H21.0115C20.8929 16.8221 20.6272 17.3084 20.2448 17.6947L17.6956 20.2419Z" fill="#394858"/>
</g>
<defs>
<clipPath id="clip0_941_1147">
<rect width="23" height="23" fill="white"/>
</clipPath>
</defs>
</svg>
