<svg width="9" height="10" viewBox="0 0 9 10" fill="none" xmlns="http://www.w3.org/2000/svg">
<path d="M7.08328 3.74999L7.08328 5.76249L7.74411 5.76249C7.90891 5.76253 8.06999 5.81142 8.207 5.90299C8.344 5.99456 8.45079 6.1247 8.51385 6.27695C8.5769 6.4292 8.59341 6.59673 8.56127 6.75835C8.52913 6.91998 8.44979 7.06845 8.33328 7.18499L5.8837 9.63499C5.64929 9.86933 5.3314 10.001 4.99995 10.001C4.66849 10.001 4.35061 9.86933 4.1162 9.63499L1.66661 7.18499C1.55011 7.06845 1.47077 6.91998 1.43863 6.75835C1.40649 6.59673 1.42299 6.4292 1.48605 6.27695C1.54911 6.1247 1.65589 5.99456 1.7929 5.90299C1.92991 5.81142 2.09099 5.76253 2.25578 5.76249L2.91661 5.76249L2.91661 3.33333C2.91595 2.67049 2.65235 2.03499 2.18365 1.56629C1.71495 1.09759 1.07945 0.833989 0.416615 0.833327C0.306108 0.833327 0.200127 0.789428 0.121987 0.711288C0.0438467 0.633148 -5.19125e-05 0.527167 -5.19174e-05 0.41666C-5.19222e-05 0.306153 0.0438467 0.200172 0.121987 0.122032C0.200127 0.0438913 0.306108 -6.31418e-06 0.416615 -6.31901e-06L3.33328 -6.4465e-06C4.3275 0.00109596 5.28069 0.396538 5.98371 1.09956C6.68674 1.80258 7.08218 2.75577 7.08328 3.74999Z" fill="#D42C35"/>
</svg>
