<svg width="9" height="10" viewBox="0 0 9 10" fill="none" xmlns="http://www.w3.org/2000/svg">
<path d="M7.08328 6.25001L7.08328 4.23751L7.74411 4.23751C7.90891 4.23747 8.06999 4.18858 8.207 4.09701C8.344 4.00544 8.45079 3.8753 8.51385 3.72305C8.5769 3.5708 8.59341 3.40327 8.56127 3.24165C8.52913 3.08002 8.44979 2.93155 8.33328 2.81501L5.8837 0.365006C5.64929 0.130668 5.3314 -0.000976704 4.99995 -0.000976719C4.66849 -0.000976733 4.35061 0.130667 4.1162 0.365006L1.66661 2.81501C1.55011 2.93155 1.47077 3.08002 1.43863 3.24165C1.40649 3.40327 1.42299 3.5708 1.48605 3.72305C1.54911 3.8753 1.65589 4.00544 1.7929 4.09701C1.92991 4.18858 2.09099 4.23747 2.25578 4.23751L2.91661 4.23751L2.91661 6.66667C2.91595 7.32951 2.65235 7.96501 2.18365 8.43371C1.71495 8.90241 1.07945 9.16601 0.416615 9.16667C0.306108 9.16667 0.200127 9.21057 0.121987 9.28871C0.0438467 9.36685 -5.19125e-05 9.47283 -5.19174e-05 9.58334C-5.19222e-05 9.69385 0.0438467 9.79983 0.121987 9.87797C0.200127 9.95611 0.306108 10 0.416615 10L3.33328 10C4.3275 9.9989 5.28069 9.60346 5.98371 8.90044C6.68674 8.19742 7.08218 7.24423 7.08328 6.25001Z" fill="#06784D"/>
</svg>
