<svg width="25" height="25" viewBox="0 0 25 25" fill="none" xmlns="http://www.w3.org/2000/svg">
<g opacity="0.7" clip-path="url(#clip0_1119_1078)">
<path d="M12.5 0C10.0277 0 7.61099 0.733112 5.55538 2.10663C3.49976 3.48015 1.89761 5.43238 0.951512 7.71646C0.00541608 10.0005 -0.242126 12.5139 0.24019 14.9386C0.722505 17.3634 1.91301 19.5907 3.66117 21.3388C5.40933 23.087 7.63662 24.2775 10.0614 24.7598C12.4861 25.2421 14.9995 24.9946 17.2836 24.0485C19.5676 23.1024 21.5199 21.5002 22.8934 19.4446C24.2669 17.389 25 14.9723 25 12.5C24.9964 9.18589 23.6783 6.00855 21.3349 3.66512C18.9915 1.3217 15.8141 0.00358446 12.5 0V0ZM12.5 22.9167C10.4398 22.9167 8.42583 22.3057 6.71282 21.1611C4.9998 20.0165 3.66467 18.3897 2.87626 16.4863C2.08785 14.5829 1.88156 12.4884 2.28349 10.4678C2.68542 8.44717 3.67751 6.5911 5.13431 5.1343C6.59111 3.67751 8.44718 2.68542 10.4678 2.28349C12.4885 1.88156 14.5829 2.08784 16.4863 2.87625C18.3897 3.66467 20.0166 4.9998 21.1611 6.71281C22.3057 8.42582 22.9167 10.4398 22.9167 12.5C22.9136 15.2617 21.8152 17.9095 19.8624 19.8623C17.9095 21.8152 15.2617 22.9136 12.5 22.9167Z" fill="#564D4E"/>
<path d="M12.5003 10.4165H11.4587C11.1824 10.4165 10.9174 10.5263 10.7221 10.7216C10.5267 10.917 10.417 11.1819 10.417 11.4582C10.417 11.7344 10.5267 11.9994 10.7221 12.1947C10.9174 12.3901 11.1824 12.4998 11.4587 12.4998H12.5003V18.7498C12.5003 19.0261 12.6101 19.2911 12.8054 19.4864C13.0008 19.6818 13.2657 19.7915 13.542 19.7915C13.8183 19.7915 14.0832 19.6818 14.2786 19.4864C14.4739 19.2911 14.5837 19.0261 14.5837 18.7498V12.4998C14.5837 11.9473 14.3642 11.4174 13.9735 11.0267C13.5828 10.636 13.0529 10.4165 12.5003 10.4165Z" fill="#564D4E"/>
<path d="M12.5 8.3335C13.3629 8.3335 14.0625 7.63394 14.0625 6.771C14.0625 5.90805 13.3629 5.2085 12.5 5.2085C11.6371 5.2085 10.9375 5.90805 10.9375 6.771C10.9375 7.63394 11.6371 8.3335 12.5 8.3335Z" fill="#564D4E"/>
</g>
<defs>
<clipPath id="clip0_1119_1078">
<rect width="25" height="25" fill="white"/>
</clipPath>
</defs>
</svg>
