<svg width="30" height="30" viewBox="0 0 30 30" fill="none" xmlns="http://www.w3.org/2000/svg">
<path d="M15 0C6.729 0 0 6.729 0 15C0 23.271 6.729 30 15 30C23.271 30 30 23.271 30 15C30 6.729 23.271 0 15 0ZM15 28.6364C7.48077 28.6364 1.36364 22.5191 1.36364 15C1.36364 7.48091 7.48077 1.36364 15 1.36364C22.5192 1.36364 28.6364 7.48091 28.6364 15C28.6364 22.5191 22.5192 28.6364 15 28.6364Z" fill="#DEE2E6"/>
<path d="M15 2.65909C8.19515 2.65909 2.65906 8.19518 2.65906 15C2.65906 21.8048 8.19515 27.3409 15 27.3409C21.8048 27.3409 27.3409 21.8048 27.3409 15C27.3409 8.19518 21.8048 2.65909 15 2.65909ZM15 26.9318C8.42069 26.9318 3.06815 21.5793 3.06815 15C3.06815 8.42072 8.42069 3.06818 15 3.06818C21.5792 3.06818 26.9318 8.42072 26.9318 15C26.9318 21.5793 21.5792 26.9318 15 26.9318Z" fill="#DEE2E6"/>
<path d="M14.0976 18.255H12.734V19.7573H11.5408V21.121H15.2908V19.7573H14.0976V18.255Z" fill="#DEE2E6"/>
<path d="M16.7812 7.87814H11.3287V9.51451H12.734V14.134H11.3287V15.7703H12.734V16.0731H14.0976V15.7703H16.7812C18.9572 15.7703 20.7273 14.0002 20.7273 11.8242C20.7273 9.64828 18.9572 7.87814 16.7812 7.87814ZM16.7812 14.1341H14.0976V9.51451H16.7812C18.0549 9.51451 19.091 10.5507 19.091 11.8242C19.091 13.0977 18.0547 14.1341 16.7812 14.1341Z" fill="#DEE2E6"/>
<path d="M18.6909 16.3459H11.3287V17.9823H18.6909V16.3459Z" fill="#DEE2E6"/>
</svg>
