<svg width="25" height="25" viewBox="0 0 25 25" fill="none" xmlns="http://www.w3.org/2000/svg">
<path d="M24.2481 20.6172L20.0455 16.4146C19.7597 16.1287 19.2963 16.1287 19.0105 16.4146L18.5669 16.8582L16.8206 15.1119C18.0446 13.5263 18.774 11.5403 18.774 9.38692C18.7739 4.21097 14.5629 0 9.38698 0C4.21097 0 0 4.21097 0 9.38692C0 14.5629 4.21097 18.7739 9.38698 18.7739C11.5403 18.7739 13.5263 18.0446 15.1119 16.8205L16.8582 18.5669L16.4146 19.0105C16.1288 19.2963 16.1288 19.7597 16.4146 20.0455L20.6172 24.2481C21.6198 25.2507 23.2455 25.2507 24.2481 24.2481C25.2507 23.2454 25.2507 21.6198 24.2481 20.6172ZM9.38698 4.79289C6.85376 4.79289 4.79289 6.85376 4.79289 9.38698C4.79289 10.0543 4.25199 10.5952 3.5847 10.5952C2.91742 10.5952 2.37651 10.0543 2.37651 9.38698C2.37645 5.52143 5.52137 2.37651 9.38698 2.37651C10.0543 2.37651 10.5952 2.91742 10.5952 3.5847C10.5952 4.25199 10.0543 4.79289 9.38698 4.79289Z" fill="#6C757E"/>
</svg>
