<svg width="20" height="20" viewBox="0 0 20 20" fill="none" xmlns="http://www.w3.org/2000/svg">
<g clip-path="url(#clip0_227_5935)">
<path d="M10 13.3333C9.39003 13.334 8.80094 13.111 8.3442 12.7067C8.0717 12.4642 7.81337 12.2283 7.6442 12.0592L5.25003 9.70584C5.10269 9.54901 5.02173 9.34126 5.0241 9.12609C5.02646 8.91091 5.11198 8.705 5.26273 8.55144C5.41348 8.39789 5.61779 8.30861 5.83289 8.30228C6.04798 8.29595 6.25718 8.37308 6.4167 8.51751L8.8167 10.875C8.97337 11.0308 9.2067 11.2425 9.4492 11.4583C9.60144 11.5926 9.79745 11.6667 10.0004 11.6667C10.2034 11.6667 10.3995 11.5926 10.5517 11.4583C10.7934 11.2433 11.0267 11.0317 11.1784 10.8808L13.5834 8.51751C13.7429 8.37308 13.9521 8.29595 14.1672 8.30228C14.3823 8.3086 14.5866 8.39789 14.7373 8.55144C14.8881 8.705 14.9736 8.91091 14.976 9.12609C14.9783 9.34126 14.8974 9.54901 14.75 9.70584L12.3517 12.0633C12.185 12.23 11.9292 12.4633 11.6575 12.7042C11.2009 13.11 10.611 13.3339 10 13.3333Z" fill="#6C757E"/>
<path d="M9.99988 0.000117355C8.02207 0.000117439 6.08867 0.586608 4.44418 1.68542C2.79969 2.78424 1.51796 4.34602 0.761086 6.17328C0.00421025 8.00054 -0.193823 10.0112 0.192029 11.951C0.577882 13.8908 1.53029 15.6727 2.92881 17.0712C4.32734 18.4697 6.10917 19.4221 8.04898 19.808C9.98879 20.1938 11.9995 19.9958 13.8267 19.2389C15.654 18.482 17.2158 17.2003 18.3146 15.5558C19.4134 13.9113 19.9999 11.9779 19.9999 10.0001C19.997 7.34883 18.9425 4.80696 17.0678 2.93222C15.193 1.05747 12.6512 0.00298481 9.99988 0.000117355ZM9.99988 18.3335C8.3517 18.3335 6.74054 17.8447 5.37013 16.929C3.99972 16.0134 2.93162 14.7119 2.30089 13.1891C1.67016 11.6664 1.50513 9.99087 1.82667 8.37437C2.14821 6.75786 2.94189 5.273 4.10732 4.10756C5.27276 2.94212 6.75762 2.14845 8.37413 1.82691C9.99064 1.50536 11.6662 1.67039 13.1889 2.30112C14.7116 2.93185 16.0131 3.99996 16.9288 5.37037C17.8445 6.74077 18.3332 8.35194 18.3332 10.0001C18.3308 12.2095 17.452 14.3277 15.8898 15.89C14.3275 17.4523 12.2093 18.331 9.99988 18.3335V18.3335Z" fill="#6C757E"/>
</g>
<defs>
<clipPath id="clip0_227_5935">
<rect y="20" width="20" height="20" transform="rotate(-90 0 20)" fill="white"/>
</clipPath>
</defs>
</svg>
