<svg width="25" height="23" viewBox="0 0 25 23" fill="none" xmlns="http://www.w3.org/2000/svg">
<path d="M20.3125 2.12499H12.9917C12.751 2.12499 12.5083 2.0677 12.2927 1.96041L9.00521 0.316657C8.64583 0.136448 8.24271 0.0416565 7.84062 0.0416565H4.68646C2.10312 0.0416565 0 2.14478 0 4.72916V18.2708C0 20.8552 2.10312 22.9583 4.6875 22.9583H8.85417C9.14167 22.9583 9.375 22.725 9.375 22.4375C9.375 22.15 9.14167 21.9167 8.85417 21.9167H4.6875C2.67708 21.9167 1.04167 20.2812 1.04167 18.2708V7.33332H23.9583V18.2708C23.9583 20.2812 22.3229 21.9167 20.3125 21.9167H16.1458C15.8583 21.9167 15.625 22.15 15.625 22.4375C15.625 22.725 15.8583 22.9583 16.1458 22.9583H20.3125C22.8969 22.9583 25 20.8552 25 18.2708V6.81249C25 4.22811 22.8969 2.12499 20.3125 2.12499ZM1.04167 4.72916C1.04167 2.71874 2.67708 1.08332 4.6875 1.08332H7.84167C8.08229 1.08332 8.325 1.14061 8.54062 1.24791L11.8281 2.89166C12.1875 3.07186 12.5906 3.16666 12.9927 3.16666H20.3135C22.1469 3.16666 23.6687 4.52707 23.9219 6.29166H1.04167V4.72916ZM13.2115 12.8333C13.1531 12.775 13.0896 12.726 13.0208 12.6854V22.4385C13.0208 22.726 12.7875 22.9594 12.5 22.9594C12.2125 22.9594 11.9792 22.726 11.9792 22.4385V12.6864C11.9104 12.7281 11.8448 12.7781 11.7844 12.8385L9.16875 15.5114C8.96771 15.7177 8.63854 15.7208 8.43229 15.5198C8.22708 15.3187 8.22292 14.9885 8.42396 14.7833L11.0437 12.1062C11.4437 11.7062 11.9667 11.5052 12.4896 11.5021H12.5083C13.0312 11.5042 13.5531 11.7042 13.95 12.1021L16.574 14.7833C16.775 14.9885 16.7708 15.3187 16.5656 15.5198C16.4646 15.6187 16.3323 15.6687 16.201 15.6687C16.0656 15.6687 15.9312 15.6167 15.8292 15.5125L13.2094 12.8354L13.2115 12.8333Z" fill="#394858"/>
</svg>
