<svg width="10" height="10" viewBox="0 0 10 10" fill="none" xmlns="http://www.w3.org/2000/svg">
<path d="M5.90986 10C5.81148 10 5.71575 9.97076 5.63705 9.91667L3.81828 8.66667C3.76181 8.62785 3.71598 8.57753 3.68441 8.51967C3.65284 8.46182 3.63641 8.39802 3.63641 8.33333V5.99167L0.446297 2.70292C0.219734 2.4687 0.0718041 2.17951 0.0202879 1.8701C-0.0312283 1.56069 0.0158611 1.24423 0.155896 0.958756C0.295932 0.673282 0.522954 0.430941 0.809677 0.260861C1.0964 0.0907803 1.43062 0.000197675 1.77218 0L8.22879 0C8.57031 0.000367105 8.90445 0.0910997 9.19106 0.261294C9.47766 0.431489 9.70454 0.673905 9.84443 0.959411C9.98431 1.24492 10.0313 1.56136 9.97961 1.87073C9.92796 2.18009 9.77993 2.46921 9.5533 2.70333L6.36455 5.99167V9.58333C6.36455 9.69384 6.31665 9.79982 6.23138 9.87796C6.14611 9.9561 6.03045 10 5.90986 10ZM4.54579 8.125L5.45517 8.75V5.83333C5.45526 5.73132 5.49619 5.63287 5.57021 5.55667L8.8749 2.14958C8.9851 2.03545 9.057 1.8946 9.08198 1.74394C9.10697 1.59328 9.08397 1.43921 9.01575 1.30023C8.94753 1.16125 8.83699 1.04327 8.69739 0.960453C8.5578 0.877633 8.39508 0.833493 8.22879 0.833333H1.77218C1.60596 0.833564 1.44335 0.877728 1.30385 0.960527C1.16434 1.04333 1.05386 1.16125 0.985655 1.30015C0.917451 1.43904 0.89442 1.59302 0.919324 1.74362C0.944228 1.89421 1.01601 2.03502 1.12606 2.14917L4.43121 5.55667C4.50506 5.63294 4.54582 5.73137 4.54579 5.83333V8.125Z" fill="#083FCC"/>
</svg>
